<svg xmlns="http://www.w3.org/2000/svg" viewBox="0 0 300 300"><defs><style>.a{fill:#002050}.b{fill:#0064b5}.c{fill:#505050}.d{fill:#fff}.e{fill:#282828}</style></defs><path d="M283.84,124.91a16.46,16.46,0,0,0-10.75-6.69q-11.26-1.95-22.56-3.52V60.87A21.53,21.53,0,0,0,236,40.44l-.16,0h-.17L160.88,17.78a32.75,32.75,0,0,0-20.83,0L65.3,40.37h-.17l-.16.05a21.54,21.54,0,0,0-14.58,20.4v53.83q-11.3,1.57-22.56,3.52a16.46,16.46,0,0,0-10.75,6.69,13.47,13.47,0,0,0-2.25,10.25l11,57.39A14.65,14.65,0,0,0,42.65,204c2.6-.45,5.2-.87,7.81-1.29.15,14.32,5.62,28.23,16.3,41.36,8.15,10,19.37,19.62,33.34,28.52a244.28,244.28,0,0,0,47.18,23.07l3.28,1.12,3.27-1.15A250.24,250.24,0,0,0,201,272.25c14-9,25.17-18.56,33.3-28.53,10.68-13.09,16.16-26.9,16.31-41,2.61.42,5.21.84,7.81,1.29a14.65,14.65,0,0,0,16.82-11.48l10.95-57.37a13.49,13.49,0,0,0-2.3-10.25Z" class="a"/><path d="M60.46,200.79v1.34c0,53.33,90,84.06,90,84.06s90-31.52,90-84.06v-.91a634.05,634.05,0,0,0-180-.43Z" class="b"/><path d="M240.46,113.37V61.24a11.51,11.51,0,0,0-7.78-10.91L157.83,27.7a22.77,22.77,0,0,0-14.72,0L68.2,50.33a11.52,11.52,0,0,0-7.74,10.91v52.13a720.91,720.91,0,0,1,180,0Z" class="c"/><path d="M104.46,95a7.62,7.62,0,0,1-3.63.77,5.85,5.85,0,0,1-4.5-1.8,6.71,6.71,0,0,1-1.69-4.74,7,7,0,0,1,1.9-5.1,6.47,6.47,0,0,1,4.82-2,7.83,7.83,0,0,1,3.1.54v1.64a6.42,6.42,0,0,0-3.12-.78A4.8,4.8,0,0,0,97.67,85a5.7,5.7,0,0,0-1.41,4,5.41,5.41,0,0,0,1.32,3.83A4.47,4.47,0,0,0,101,94.27a6.42,6.42,0,0,0,3.43-.83Zm13.43.55h-7V82.37h6.68v1.4h-5.11v4.37h4.75v1.39h-4.75v4.6h5.43Zm15.72,0h-1.83l-2.2-3.68A8.44,8.44,0,0,0,129,91a3.59,3.59,0,0,0-.58-.59,2.69,2.69,0,0,0-.65-.34,2.86,2.86,0,0,0-.77-.1h-1.27v5.59h-1.54V82.37h3.93a5.7,5.7,0,0,1,1.59.22,3.56,3.56,0,0,1,1.27.65,3.36,3.36,0,0,1,.84,1.1,4,4,0,0,1,.09,2.8,3,3,0,0,1-.59,1,3.68,3.68,0,0,1-.91.76,4.42,4.42,0,0,1-1.21.5,2.53,2.53,0,0,1,.57.34,3.27,3.27,0,0,1,.47.44c.14.17.29.37.43.58s.31.47.48.76Zm-7.89-11.75v4.76h2.09a3,3,0,0,0,1.07-.17,2.61,2.61,0,0,0,.85-.5,2.15,2.15,0,0,0,.56-.8,2.53,2.53,0,0,0,.2-1.06,2,2,0,0,0-.68-1.64,3,3,0,0,0-2-.59Zm20.4,0h-3.8V95.52h-1.54V83.77H137v-1.4h9.13Zm7.34,11.75h-1.55V82.37h1.55Zm13.92-11.75h-5.13v4.55H167V89.7h-4.75v5.82H160.7V82.37h6.68Zm7.8,11.75h-1.54V82.37h1.54Zm14.2,0h-7V82.37h6.68v1.4h-5.14v4.37h4.76v1.39h-4.76v4.6h5.44Zm6.29,0V82.37h3.63q7,0,7,6.41a6.46,6.46,0,0,1-1.93,4.9,7.13,7.13,0,0,1-5.17,1.84Zm1.54-11.75V94.13h2a5.51,5.51,0,0,0,4-1.39,5.17,5.17,0,0,0,1.44-3.92q0-5-5.37-5ZM114.54,71.1H110.6V60.52q0-1.71.15-3.78h-.1a18.92,18.92,0,0,1-.55,2.34l-4.14,12H102.7L98.46,59.2a23,23,0,0,1-.56-2.46h-.11c.11,1.74.16,3.27.16,4.58V71.1H94.39V53.44h5.83l3.62,10.48a14.72,14.72,0,0,1,.62,2.52h.08a25.82,25.82,0,0,1,.7-2.56l3.61-10.44h5.69Zm5.61-14.66a2.29,2.29,0,0,1-1.62-.59,1.85,1.85,0,0,1-.63-1.43,1.79,1.79,0,0,1,.63-1.43,2.61,2.61,0,0,1,3.24,0,1.82,1.82,0,0,1,.62,1.43,1.9,1.9,0,0,1-.62,1.45A2.3,2.3,0,0,1,120.15,56.44Zm1.92,14.62h-3.9V58.44h3.9Zm12.84-.42a7.61,7.61,0,0,1-3.81.77,6.41,6.41,0,0,1-4.7-1.77,6.1,6.1,0,0,1-1.8-4.55A6.75,6.75,0,0,1,126.52,60a7.14,7.14,0,0,1,5.16-1.85,6.53,6.53,0,0,1,3.23.59v3.3a4.39,4.39,0,0,0-2.72-.91,3.63,3.63,0,0,0-2.66,1,3.68,3.68,0,0,0-1,2.71,3.6,3.6,0,0,0,.93,2.58,3.38,3.38,0,0,0,2.58,1,5,5,0,0,0,2.84-.91ZM145.7,62a3.44,3.44,0,0,0-1.64-.38,2.36,2.36,0,0,0-2,.93,4,4,0,0,0-.72,2.53v6h-3.88V58.44h3.89v2.35a3.38,3.38,0,0,1,3.33-2.57,2.44,2.44,0,0,1,1,.15Zm7.76,9.45a6.73,6.73,0,0,1-5-1.77,6.39,6.39,0,0,1-1.81-4.8,6.41,6.41,0,0,1,1.88-4.9,7.07,7.07,0,0,1,5.06-1.77A6.72,6.72,0,0,1,158.52,60a6.25,6.25,0,0,1,1.79,4.67,6.67,6.67,0,0,1-1.84,5A6.86,6.86,0,0,1,153.46,71.44Zm.1-10.26a2.62,2.62,0,0,0-2.15,1,4.21,4.21,0,0,0-.76,2.69q0,3.63,2.93,3.63c1.95,0,2.89-1.24,2.8-3.73s-1-3.57-2.85-3.57ZM162,70.77V67.61a8.06,8.06,0,0,0,1.92.86,6.23,6.23,0,0,0,1.81.29,3.66,3.66,0,0,0,1.63-.29.91.91,0,0,0,.6-.86.83.83,0,0,0-.27-.62,3.14,3.14,0,0,0-.7-.43,7.32,7.32,0,0,0-.93-.33c-.34-.1-.66-.21-1-.33a9.81,9.81,0,0,1-1.32-.61,3.89,3.89,0,0,1-1-.76,3,3,0,0,1-.59-1,3.8,3.8,0,0,1-.21-1.34,3.47,3.47,0,0,1,.47-1.83,3.59,3.59,0,0,1,1.23-1.25,5.84,5.84,0,0,1,1.8-.67,9.58,9.58,0,0,1,2.07-.22,12,12,0,0,1,1.7.13,14.32,14.32,0,0,1,1.7.37v3a6.12,6.12,0,0,0-1.59-.65,6.55,6.55,0,0,0-1.65-.21,4.49,4.49,0,0,0-.73.06,3.16,3.16,0,0,0-.59.2,1.2,1.2,0,0,0-.41.33.8.8,0,0,0-.15.47.9.9,0,0,0,.22.59,1.83,1.83,0,0,0,.58.42,4.94,4.94,0,0,0,.8.32l.87.29a11.56,11.56,0,0,1,1.4.6,4.53,4.53,0,0,1,1.08.75,2.89,2.89,0,0,1,.69,1,4.08,4.08,0,0,1-.24,3.3,3.91,3.91,0,0,1-1.3,1.29,5.64,5.64,0,0,1-1.86.73,10.06,10.06,0,0,1-2.19.23,11.41,11.41,0,0,1-3.84-.67Zm17.95.67a6.73,6.73,0,0,1-5-1.77,6.44,6.44,0,0,1-1.81-4.8A6.41,6.41,0,0,1,175,60a7.11,7.11,0,0,1,5.06-1.77A6.76,6.76,0,0,1,185,60a6.25,6.25,0,0,1,1.78,4.67,6.67,6.67,0,0,1-1.84,5,6.86,6.86,0,0,1-5,1.8Zm.1-10.26a2.6,2.6,0,0,0-2.14,1,4.16,4.16,0,0,0-.77,2.69q0,3.63,2.93,3.63c1.95,0,2.89-1.24,2.8-3.73s-.94-3.57-2.82-3.57Zm17.17-5.74a4.2,4.2,0,0,0-1.44-.29c-1.25,0-1.87.67-1.87,2v1.29h2.88v2.88h-2.88v9.75H190V61.35h-2.12V58.44H190V56.91a4.54,4.54,0,0,1,1.42-3.47,5.38,5.38,0,0,1,3.82-1.32,7.08,7.08,0,0,1,2,.25ZM206.8,71a5.8,5.8,0,0,1-2.6.46c-2.75,0-4.12-1.42-4.12-4.28V61.35H198V58.44h2.05V55.75L204,54.64v3.8h2.84v2.88H204v5.12c0,1.32.52,2,1.57,2a2.69,2.69,0,0,0,1.27-.35ZM127.61,213l4.71,14.49h15.24l-12.33,8.95,4.71,14.49L127.61,242l-12.33,8.95L120,236.42l-12.33-8.95H122.9Zm45.7,0L178,227.47h15.24l-12.33,8.95,4.71,14.49L173.31,242,161,250.91l4.71-14.49-12.33-8.95H168.6Z" class="d"/><path d="M283.84,124.91a16.46,16.46,0,0,0-10.75-6.69q-16.27-2.77-32.63-4.85a720.59,720.59,0,0,0-180.08,0q-16.27,2.07-32.55,4.85a16.46,16.46,0,0,0-10.75,6.69,13.47,13.47,0,0,0-2.25,10.25l11,57.39A14.65,14.65,0,0,0,42.65,204q10.4-1.78,20.82-3.23a634.25,634.25,0,0,1,180.08.86q7.42,1.09,14.82,2.37a14.65,14.65,0,0,0,16.82-11.48l10.95-57.37a13.52,13.52,0,0,0-2.3-10.26Z" class="c"/><path d="M272.12,123.86a716.06,716.06,0,0,0-243.31,0,10.73,10.73,0,0,0-7,4.31,7.78,7.78,0,0,0-1.35,5.91l11,57.36a8.86,8.86,0,0,0,10.22,6.91,640.15,640.15,0,0,1,217.66,0,8.88,8.88,0,0,0,10.18-6.91l10.94-57.35a7.75,7.75,0,0,0-1.33-5.92A10.69,10.69,0,0,0,272.12,123.86Z" class="d"/><path d="M80.7,166.44l-5.88.59-2.23-5.16-8.52.85-1.16,5.49-5.84.59L63.4,144l6.4-.64Zm-9.76-8.59-3.37-7.8a10.42,10.42,0,0,1-.62-2.11h-.13a9.5,9.5,0,0,1-.21,2.13l-1.8,8.38ZM83,165.44l-.35-5.36A10.13,10.13,0,0,0,86,161.71a9.8,9.8,0,0,0,3.49.39,7.63,7.63,0,0,0,1.77-.3,4.42,4.42,0,0,0,1.24-.59,2.25,2.25,0,0,0,.71-.82,2,2,0,0,0,.19-1,2.07,2.07,0,0,0-.48-1.23,4.32,4.32,0,0,0-1.17-1,11.43,11.43,0,0,0-1.7-.79c-.66-.25-1.37-.5-2.12-.76a10.57,10.57,0,0,1-4.42-2.52,6.31,6.31,0,0,1-1.64-4,6.56,6.56,0,0,1,.54-3.27,6.32,6.32,0,0,1,1.94-2.38A9.47,9.47,0,0,1,87.22,142a15.74,15.74,0,0,1,3.6-.65,23.27,23.27,0,0,1,3.34,0,13.13,13.13,0,0,1,2.71.53l.33,5a8.49,8.49,0,0,0-1.36-.65,11.16,11.16,0,0,0-1.5-.43,9.75,9.75,0,0,0-1.52-.21,11.37,11.37,0,0,0-1.43,0,7.21,7.21,0,0,0-1.66.28,4.38,4.38,0,0,0-1.27.61,2.49,2.49,0,0,0-.76.82,1.84,1.84,0,0,0-.22,1,2,2,0,0,0,.39,1.06,3.71,3.71,0,0,0,1,.85,9.2,9.2,0,0,0,1.47.74c.66.27,1.32.51,2,.73A19.51,19.51,0,0,1,95,152.75a9.09,9.09,0,0,1,2.07,1.4A5.94,5.94,0,0,1,98.46,156a7.16,7.16,0,0,1,.61,2.53,6.91,6.91,0,0,1-.55,3.42,6.27,6.27,0,0,1-1.92,2.35,9,9,0,0,1-3,1.41,17.11,17.11,0,0,1-3.63.61,19.89,19.89,0,0,1-3.78-.09,11.73,11.73,0,0,1-3.18-.82Zm19.83-1.22-.22-5.37a10.3,10.3,0,0,0,6.73,2.18,7.16,7.16,0,0,0,1.78-.26,4.39,4.39,0,0,0,1.25-.56,2.16,2.16,0,0,0,.73-.8,1.93,1.93,0,0,0,.22-1,2,2,0,0,0-.46-1.24,4.19,4.19,0,0,0-1.14-1,11.51,11.51,0,0,0-1.69-.83q-1-.41-2.1-.81a10.41,10.41,0,0,1-4.31-2.7,6.21,6.21,0,0,1-1.55-4,6.13,6.13,0,0,1,2.62-5.57,9.27,9.27,0,0,1,3-1.41,15.24,15.24,0,0,1,3.61-.55,20.71,20.71,0,0,1,3.34.09,13.13,13.13,0,0,1,2.7.58l.2,5a7.33,7.33,0,0,0-1.34-.68,9.55,9.55,0,0,0-1.49-.47,11.06,11.06,0,0,0-1.51-.25,11.37,11.37,0,0,0-1.43,0,7.33,7.33,0,0,0-1.67.25,4.11,4.11,0,0,0-1.25.55,2.45,2.45,0,0,0-.78.79,1.83,1.83,0,0,0-.24,1,2,2,0,0,0,.36,1.07,3.78,3.78,0,0,0,1,.87,9.72,9.72,0,0,0,1.46.78c.57.25,1.21.51,1.93.77a20.82,20.82,0,0,1,2.64,1.18,9.2,9.2,0,0,1,2,1.45,6,6,0,0,1,1.34,1.91,6.92,6.92,0,0,1,.54,2.54,6.79,6.79,0,0,1-.63,3.41,6.25,6.25,0,0,1-2,2.3,9,9,0,0,1-3,1.34,17.35,17.35,0,0,1-3.65.51,19.92,19.92,0,0,1-3.78-.18A11.52,11.52,0,0,1,102.84,164.22Zm31.12.36a11.22,11.22,0,0,1-8.48-3.22,12.08,12.08,0,0,1-3.4-8.72,13,13,0,0,1,3.15-9.29,11.48,11.48,0,0,1,8.71-3.67,11,11,0,0,1,8.39,3.24,12.44,12.44,0,0,1,3.32,8.85,12.67,12.67,0,0,1-3.15,9.2,11.32,11.32,0,0,1-8.54,3.61Zm-.1-20.23a5.42,5.42,0,0,0-4.49,2.22,10.4,10.4,0,0,0,.18,11.32,5.35,5.35,0,0,0,4.43,2,5.45,5.45,0,0,0,4.42-2.1,8.65,8.65,0,0,0,1.55-5.64,9.36,9.36,0,0,0-1.69-5.8,5.19,5.19,0,0,0-4.4-2Zm33.8,18.93a16,16,0,0,1-6.89,1.22q-5.55,0-8.69-3.33a11.87,11.87,0,0,1-3.11-8.7,12.76,12.76,0,0,1,3.64-9.34,12.49,12.49,0,0,1,9.29-3.52,17.15,17.15,0,0,1,5.94.94v5.22a10.51,10.51,0,0,0-5.49-1.49,7.34,7.34,0,0,0-5.49,2.09,9,9,0,0,0-.21,11.34,6.94,6.94,0,0,0,5.28,2.11,11.21,11.21,0,0,0,5.82-1.5Zm10.2,1.16-5.43-.13.6-24.07,5.42.13Zm27.2,1-5.9-.26-1.47-5.43-8.56-.38-1.93,5.28-5.87-.26,9.82-23.67,6.43.29Zm-8.43-9.91-2.17-8.15a10.14,10.14,0,0,1-.31-2.19H194a8.33,8.33,0,0,1-.51,2.08l-3,8Zm27.83-8.37-6.84-.48-1.38,19.61-5.42-.38,1.37-19.61-6.82-.48.31-4.4,19.09,1.33Zm16.69,21.43-14.36-1.47,2.43-24L243,144.53l-.44,4.39-8.42-.86-.54,5.33,7.83.8-.44,4.38-7.84-.8-.55,5.48,9,.91Z" class="e"/><path d="M283.36,124.87a16.5,16.5,0,0,0-10.75-6.69q-11.26-2-22.56-3.52V60.83A21.53,21.53,0,0,0,235.47,40.4l-.16,0h-.17L160.4,17.74a32.75,32.75,0,0,0-20.83,0L64.82,40.33h-.17l-.16.05a21.54,21.54,0,0,0-14.58,20.4v53.83q-11.29,1.58-22.56,3.52a16.5,16.5,0,0,0-10.75,6.69,13.52,13.52,0,0,0-2.25,10.25l11,57.39a14.64,14.64,0,0,0,16.82,11.47c2.6-.45,5.2-.87,7.81-1.29C50.13,217,55.6,230.87,66.28,244c8.15,10,19.37,19.62,33.34,28.52a244.28,244.28,0,0,0,47.18,23.07l3.28,1.12,3.27-1.15a250.24,250.24,0,0,0,47.12-23.35c14-9,25.17-18.56,33.3-28.53,10.68-13.09,16.16-26.9,16.31-41,2.61.42,5.21.84,7.81,1.29a14.65,14.65,0,0,0,16.82-11.48l11-57.37a13.49,13.49,0,0,0-2.3-10.25Z" class="a"/><path d="M60,200.75v1.34c0,53.33,90,84.06,90,84.06s90-31.52,90-84.06v-.91a634.05,634.05,0,0,0-180-.43Z" class="b"/><path d="M240,113.33V61.2a11.52,11.52,0,0,0-7.78-10.91L157.35,27.66a22.77,22.77,0,0,0-14.72,0L67.72,50.29A11.53,11.53,0,0,0,60,61.2v52.13a720.91,720.91,0,0,1,180,0Z" class="c"/><path d="M283.36,124.87a16.5,16.5,0,0,0-10.75-6.69q-16.28-2.78-32.63-4.85a720.59,720.59,0,0,0-180.08,0q-16.27,2.07-32.55,4.85a16.5,16.5,0,0,0-10.75,6.69,13.52,13.52,0,0,0-2.25,10.25l11,57.39A14.64,14.64,0,0,0,42.17,204Q52.57,202.2,63,200.75a634.25,634.25,0,0,1,180.08.86q7.43,1.09,14.82,2.37a14.65,14.65,0,0,0,16.82-11.48l11-57.37a13.52,13.52,0,0,0-2.3-10.26Z" class="c"/><path d="M271.64,123.82a716.06,716.06,0,0,0-243.31,0,10.73,10.73,0,0,0-7,4.31A7.82,7.82,0,0,0,20,134L31,191.4a8.86,8.86,0,0,0,10.22,6.91,640.4,640.4,0,0,1,217.66,0A8.88,8.88,0,0,0,269,191.4L280,134.05a7.75,7.75,0,0,0-1.33-5.92A10.73,10.73,0,0,0,271.64,123.82Z" class="d"/><path d="M127.13,212.94l4.71,14.49h15.24l-12.33,8.95,4.71,14.49-12.33-9-12.33,9,4.71-14.49-12.33-8.95h15.24Zm45.7,0,4.71,14.49h15.24l-12.33,8.95,4.71,14.49-12.33-9-12.33,9,4.71-14.49-12.33-8.95h15.24Z" class="d"/><path d="M113.93,71.38H110V60.9c0-1.13,0-2.38.14-3.75h-.09a19.86,19.86,0,0,1-.55,2.32l-4.1,11.91h-3.23L98,59.6a21.31,21.31,0,0,1-.55-2.45h-.11c.1,1.73.16,3.24.16,4.54v9.69H94V53.87h5.77l3.58,10.38a15,15,0,0,1,.62,2.5H104a23.94,23.94,0,0,1,.7-2.53l3.57-10.35h5.63Z" class="d"/><path d="M119.49,56.9a2.26,2.26,0,0,1-1.6-.58,1.86,1.86,0,0,1-.63-1.42,1.8,1.8,0,0,1,.63-1.42,2.6,2.6,0,0,1,3.2,0,1.83,1.83,0,0,1,.62,1.42,1.88,1.88,0,0,1-.62,1.44A2.29,2.29,0,0,1,119.49,56.9Zm1.9,14.48h-3.86V58.88h3.86Z" class="d"/><path d="M134.11,70.92a7.56,7.56,0,0,1-3.77.76,6.38,6.38,0,0,1-4.67-1.75,6,6,0,0,1-1.78-4.5,6.65,6.65,0,0,1,1.91-5,7.06,7.06,0,0,1,5.11-1.84,6.57,6.57,0,0,1,3.2.59v3.27a4.44,4.44,0,0,0-2.7-.91,3.35,3.35,0,0,0-3.6,3.65,3.56,3.56,0,0,0,.93,2.61,3.42,3.42,0,0,0,2.55,1,5,5,0,0,0,2.82-.91Z" class="d"/><path d="M144.79,62.35a3.34,3.34,0,0,0-1.62-.37,2.33,2.33,0,0,0-2,.92,4,4,0,0,0-.71,2.51v6h-3.85V58.88h3.85v2.31h0a3.33,3.33,0,0,1,3.3-2.53,2.44,2.44,0,0,1,.95.14Z" class="d"/><path d="M152.45,71.68a6.71,6.71,0,0,1-4.92-1.75,6.36,6.36,0,0,1-1.79-4.76,6.35,6.35,0,0,1,1.86-4.85,7,7,0,0,1,5-1.75,6.63,6.63,0,0,1,4.88,1.75A6.23,6.23,0,0,1,159.27,65a6.59,6.59,0,0,1-1.83,4.92A6.75,6.75,0,0,1,152.45,71.68Zm.09-10.16a2.58,2.58,0,0,0-2.12.94,4.14,4.14,0,0,0-.76,2.67q0,3.6,2.91,3.6c1.84,0,2.77-1.24,2.77-3.7S154.41,61.52,152.54,61.52Z" class="d"/><path d="M161,71.05V67.92a8.12,8.12,0,0,0,1.9.85,6.24,6.24,0,0,0,1.79.29,3.82,3.82,0,0,0,1.62-.29.9.9,0,0,0,.59-.85.79.79,0,0,0-.27-.61,2.54,2.54,0,0,0-.69-.43,8.92,8.92,0,0,0-.92-.33,7.91,7.91,0,0,1-1-.33,9.46,9.46,0,0,1-1.31-.6,4,4,0,0,1-.95-.75,3.1,3.1,0,0,1-.59-1,4,4,0,0,1-.2-1.33,3.5,3.5,0,0,1,.46-1.81,3.9,3.9,0,0,1,1.22-1.24,5.58,5.58,0,0,1,1.75-.7,9,9,0,0,1,2-.23,10.78,10.78,0,0,1,1.69.13,12,12,0,0,1,1.68.37v3a5.83,5.83,0,0,0-1.57-.64,6.67,6.67,0,0,0-1.64-.22,4,4,0,0,0-.71.07,2.49,2.49,0,0,0-.6.2,1,1,0,0,0-.4.33.71.71,0,0,0-.14.45.83.83,0,0,0,.22.59,1.84,1.84,0,0,0,.57.42,4.81,4.81,0,0,0,.79.32l.86.29a10.57,10.57,0,0,1,1.39.58,4.45,4.45,0,0,1,1.07.75,2.91,2.91,0,0,1,.68,1,3.52,3.52,0,0,1,.24,1.36,3.57,3.57,0,0,1-.48,1.9,3.85,3.85,0,0,1-1.29,1.28,5.7,5.7,0,0,1-1.84.72,10.24,10.24,0,0,1-2.17.23A11.3,11.3,0,0,1,161,71.05Z" class="d"/><path d="M178.73,71.68a6.73,6.73,0,0,1-4.92-1.75A6.36,6.36,0,0,1,172,65.17a6.35,6.35,0,0,1,1.85-4.85,7,7,0,0,1,5-1.75,6.63,6.63,0,0,1,4.88,1.75A6.23,6.23,0,0,1,185.55,65a6.62,6.62,0,0,1-1.82,4.92A6.79,6.79,0,0,1,178.73,71.68Zm.09-10.16a2.59,2.59,0,0,0-2.12.94,4.2,4.2,0,0,0-.76,2.67q0,3.6,2.91,3.6c1.85,0,2.77-1.24,2.77-3.7S180.69,61.52,178.82,61.52Z" class="d"/><path d="M195.83,55.82a4,4,0,0,0-1.43-.29q-1.86,0-1.86,2v1.34h2.86v2.84h-2.86v9.66H188.7V61.72h-2.1V58.88h2.1V57.32a4.49,4.49,0,0,1,1.39-3.44,5.32,5.32,0,0,1,3.79-1.3,6.73,6.73,0,0,1,2,.24Z" class="d"/><path d="M205.29,71.23a5.73,5.73,0,0,1-2.58.45q-4.07,0-4.07-4.24V61.72h-2V58.88h2v-2.7l3.84-1.1v3.8h2.81v2.84h-2.81v5c0,1.31.52,2,1.55,2a2.58,2.58,0,0,0,1.26-.36Z" class="d"/><path d="M104.22,95a9,9,0,0,1-4,.78A6.7,6.7,0,0,1,95.31,94a6.43,6.43,0,0,1-1.85-4.79A6.76,6.76,0,0,1,95.54,84a7.4,7.4,0,0,1,5.28-2,9.2,9.2,0,0,1,3.4.55v1.66a7.37,7.37,0,0,0-3.42-.8,5.28,5.28,0,0,0-5.57,5.63A5.23,5.23,0,0,0,96.67,93a5.15,5.15,0,0,0,3.79,1.44,7.6,7.6,0,0,0,3.76-.89Z" class="d"/><path d="M117.73,95.6h-7.64V82.3h7.32v1.41h-5.63v4.42H117v1.4h-5.21v4.66h6Z" class="d"/><path d="M133.77,95.6h-2l-2.41-3.73a7.94,7.94,0,0,0-.65-.89,3.43,3.43,0,0,0-.63-.59,2.21,2.21,0,0,0-.71-.34,3.13,3.13,0,0,0-.85-.11h-1.39V95.6h-1.69V82.3h4.31a6.8,6.8,0,0,1,1.74.21,4,4,0,0,1,1.39.67,3,3,0,0,1,.92,1.11,3.44,3.44,0,0,1,.34,1.55,3.55,3.55,0,0,1-.23,1.28,3.27,3.27,0,0,1-.65,1,3.7,3.7,0,0,1-1,.77,5.17,5.17,0,0,1-1.32.5v0a2.78,2.78,0,0,1,.62.34,2.66,2.66,0,0,1,.51.45,6.11,6.11,0,0,1,.48.59l.53.76Zm-8.65-11.89v4.82h2.3a3.68,3.68,0,0,0,1.17-.18,2.6,2.6,0,0,0,.93-.5,2.23,2.23,0,0,0,.61-.81,2.47,2.47,0,0,0,.22-1.07,2,2,0,0,0-.75-1.67,3.43,3.43,0,0,0-2.16-.59Z" class="d"/><path d="M146.29,83.71h-4.17V95.6h-1.69V83.71h-4.15V82.3h10Z" class="d"/><path d="M153.17,95.6h-1.69V82.3h1.69Z" class="d"/><path d="M167.21,83.71h-5.64v4.6h5.22v1.4h-5.22V95.6h-1.69V82.3h7.33Z" class="d"/><path d="M174.56,95.6h-1.69V82.3h1.69Z" class="d"/><path d="M188.92,95.6h-7.64V82.3h7.32v1.41H183v4.42h5.21v1.4H183v4.66h5.95Z" class="d"/><path d="M194.63,95.6V82.3h4q7.62,0,7.62,6.48a6.29,6.29,0,0,1-2.11,5,8.23,8.23,0,0,1-5.67,1.87Zm1.69-11.89V94.19h2.15a6.43,6.43,0,0,0,4.41-1.4,5,5,0,0,0,1.58-4q0-5.11-5.89-5.11Z" class="d"/><path d="M84.25,168.08c-2.33.27-3.5.41-5.83.71-.94-2-1.42-3-2.37-5-3.41.44-5.11.68-8.52,1.17-.37,2.19-.55,3.29-.91,5.48-2.31.35-3.47.52-5.78.89,2-9.95,3-14.93,5.26-24.87l6.6-.9C77.46,154.5,79.77,159,84.25,168.08Zm-10-8.25c-1.45-3-2.19-4.55-3.67-7.58a10.4,10.4,0,0,1-.7-2.07l-.14,0a8.94,8.94,0,0,1-.14,2.12c-.62,3.34-.93,5-1.52,8.36C70.57,160.33,71.8,160.16,74.27,159.83Z" class="d"/><path d="M86,167c-.23-2.12-.35-3.17-.59-5.28a10.63,10.63,0,0,0,3.36,1.46,10.45,10.45,0,0,0,3.51.24,7.89,7.89,0,0,0,1.76-.36,4.21,4.21,0,0,0,1.22-.62,2.25,2.25,0,0,0,.69-.84,1.91,1.91,0,0,0,.17-1,2.08,2.08,0,0,0-.52-1.2,4.61,4.61,0,0,0-1.2-.91,12.84,12.84,0,0,0-1.75-.73c-.67-.22-1.39-.44-2.17-.66A11,11,0,0,1,86,154.72a6.07,6.07,0,0,1-1.85-3.87,6.18,6.18,0,0,1,.41-3.26,6.38,6.38,0,0,1,1.87-2.42,9.57,9.57,0,0,1,3-1.59,16.42,16.42,0,0,1,3.69-.78,23.1,23.1,0,0,1,3.46-.09,13.64,13.64,0,0,1,2.82.44l.42,4.95a8.23,8.23,0,0,0-1.41-.62,11.31,11.31,0,0,0-1.55-.38,12,12,0,0,0-1.56-.17,11.49,11.49,0,0,0-1.46,0,8.35,8.35,0,0,0-1.71.34,4.42,4.42,0,0,0-1.25.62,2.38,2.38,0,0,0-.75.84,1.73,1.73,0,0,0-.19,1,1.9,1.9,0,0,0,.43,1,3.74,3.74,0,0,0,1,.8,9.27,9.27,0,0,0,1.53.68c.59.21,1.26.43,2,.65a20.32,20.32,0,0,1,2.75,1,9.13,9.13,0,0,1,2.12,1.34,5.85,5.85,0,0,1,1.44,1.81,7.65,7.65,0,0,1,.17,5.89,6.26,6.26,0,0,1-1.87,2.36,9.28,9.28,0,0,1-2.91,1.48,18.41,18.41,0,0,1-3.59.71,21.63,21.63,0,0,1-3.76.06A11.69,11.69,0,0,1,86,167Z" class="d"/><path d="M105.12,165.13c-.17-2.12-.25-3.18-.42-5.3A10.58,10.58,0,0,0,108,161.4a10.75,10.75,0,0,0,3.5.37,8.34,8.34,0,0,0,1.77-.3,4.34,4.34,0,0,0,1.24-.59,2.27,2.27,0,0,0,.72-.81,1.88,1.88,0,0,0,.19-1,1.91,1.91,0,0,0-.48-1.21,4.31,4.31,0,0,0-1.16-.95,11.79,11.79,0,0,0-1.73-.79c-.66-.24-1.37-.49-2.14-.73a10.88,10.88,0,0,1-4.45-2.52,6.14,6.14,0,0,1-1.73-3.93,6.07,6.07,0,0,1,2.47-5.6,9.58,9.58,0,0,1,3-1.49,16.24,16.24,0,0,1,3.72-.65,20.79,20.79,0,0,1,3.46,0,14,14,0,0,1,2.8.53l.26,5a9.38,9.38,0,0,0-1.39-.66,11.33,11.33,0,0,0-1.54-.44,10.43,10.43,0,0,0-1.56-.21,10.21,10.21,0,0,0-1.46,0,7.27,7.27,0,0,0-1.71.28,4.54,4.54,0,0,0-1.27.57,2.59,2.59,0,0,0-.78.81,1.87,1.87,0,0,0,.18,2,3.62,3.62,0,0,0,1,.84,10.17,10.17,0,0,0,1.51.73c.58.23,1.25.47,2,.72a18.93,18.93,0,0,1,2.7,1.11,8.83,8.83,0,0,1,2.08,1.41,5.69,5.69,0,0,1,1.37,1.86,7.63,7.63,0,0,1,0,5.89,6.47,6.47,0,0,1-2,2.3,9.17,9.17,0,0,1-3,1.37,18.51,18.51,0,0,1-3.61.6,22.13,22.13,0,0,1-3.75-.07A11.93,11.93,0,0,1,105.12,165.13Z" class="d"/><path d="M135.5,164.88a11.42,11.42,0,0,1-8.49-3.06,12,12,0,0,1-3.64-8.52,12.36,12.36,0,0,1,3-9.27,11.88,11.88,0,0,1,8.92-3.78,11.35,11.35,0,0,1,8.66,3.19,11.92,11.92,0,0,1,3.32,8.77,12.64,12.64,0,0,1-3.25,9.08A11.53,11.53,0,0,1,135.5,164.88Zm-.27-20a5.62,5.62,0,0,0-4.58,2.25,10,10,0,0,0,.37,11.19,5.43,5.43,0,0,0,4.46,1.93,5.52,5.52,0,0,0,4.42-2.09,8.58,8.58,0,0,0,1.57-5.58,9.08,9.08,0,0,0-1.72-5.74A5.36,5.36,0,0,0,135.23,144.87Z" class="d"/><path d="M168.43,163.73a16.33,16.33,0,0,1-6.87,1.08c-3.66-.07-6.53-1.17-8.62-3.33a11.8,11.8,0,0,1-3.17-8.59,12.2,12.2,0,0,1,3.66-9.25,12.89,12.89,0,0,1,9.61-3.42,18,18,0,0,1,6.12,1c-.07,2.07-.1,3.1-.17,5.16a11,11,0,0,0-5.61-1.58,7.52,7.52,0,0,0-5.64,2,8.68,8.68,0,0,0-.27,11.21,7.08,7.08,0,0,0,5.26,2.14,11.64,11.64,0,0,0,5.86-1.36Z" class="d"/><path d="M177.94,165c-2.15-.11-3.22-.16-5.38-.24l.95-23.79,5.6.25C178.65,150.7,178.41,155.45,177.94,165Z" class="d"/><path d="M204.34,166.88c-2.34-.22-3.51-.33-5.85-.53-.5-2.17-.75-3.25-1.26-5.42-3.42-.28-5.14-.41-8.56-.64-.82,2.06-1.23,3.1-2,5.17-2.33-.15-3.49-.22-5.82-.35,4-9.32,6.06-14,10.34-23.21,2.65.19,4,.29,6.63.5C200.55,152.18,201.86,157.08,204.34,166.88Zm-8-10.16c-.79-3.27-1.19-4.91-2-8.18a10.18,10.18,0,0,1-.25-2.16l-.14,0a8.76,8.76,0,0,1-.58,2c-1.31,3.14-2,4.71-3.24,7.86C192.6,156.43,193.84,156.52,196.32,156.72Z" class="d"/><path d="M224.08,149.52c-2.8-.35-4.2-.52-7-.85-.88,7.73-1.33,11.59-2.21,19.32-2.15-.25-3.23-.37-5.38-.59.82-7.74,1.22-11.6,2-19.34-2.8-.29-4.2-.43-7-.69l.4-4.35c7.89.74,11.83,1.17,19.7,2.17Z" class="d"/><path d="M239.05,171.29c-5.68-.9-8.52-1.31-14.22-2.07,1.26-9.44,1.88-14.16,3.13-23.6,5.71.76,8.56,1.17,14.25,2.07l-.68,4.31c-3.44-.54-5.16-.8-8.61-1.29l-.75,5.24c3.18.46,4.77.69,8,1.19-.27,1.72-.41,2.58-.68,4.3-3.15-.5-4.73-.73-7.88-1.18l-.77,5.39c3.58.51,5.37.78,8.94,1.34Z" class="d"/><path d="M113.93,71.38H110V60.9c0-1.13,0-2.38.14-3.75h-.09a19.86,19.86,0,0,1-.55,2.32l-4.1,11.91h-3.23L98,59.6a21.31,21.31,0,0,1-.55-2.45h-.11c.1,1.73.16,3.24.16,4.54v9.69H94V53.87h5.77l3.58,10.38a15,15,0,0,1,.62,2.5H104a23.94,23.94,0,0,1,.7-2.53l3.57-10.35h5.63Z" class="d"/><path d="M119.49,56.9a2.26,2.26,0,0,1-1.6-.58,1.86,1.86,0,0,1-.63-1.42,1.8,1.8,0,0,1,.63-1.42,2.6,2.6,0,0,1,3.2,0,1.83,1.83,0,0,1,.62,1.42,1.88,1.88,0,0,1-.62,1.44A2.29,2.29,0,0,1,119.49,56.9Zm1.9,14.48h-3.86V58.88h3.86Z" class="d"/><path d="M134.11,70.92a7.56,7.56,0,0,1-3.77.76,6.38,6.38,0,0,1-4.67-1.75,6,6,0,0,1-1.78-4.5,6.65,6.65,0,0,1,1.91-5,7.06,7.06,0,0,1,5.11-1.84,6.57,6.57,0,0,1,3.2.59v3.27a4.44,4.44,0,0,0-2.7-.91,3.35,3.35,0,0,0-3.6,3.65,3.56,3.56,0,0,0,.93,2.61,3.42,3.42,0,0,0,2.55,1,5,5,0,0,0,2.82-.91Z" class="d"/><path d="M144.79,62.35a3.34,3.34,0,0,0-1.62-.37,2.33,2.33,0,0,0-2,.92,4,4,0,0,0-.71,2.51v6h-3.85V58.88h3.85v2.31h0a3.33,3.33,0,0,1,3.3-2.53,2.44,2.44,0,0,1,.95.14Z" class="d"/><path d="M152.45,71.68a6.71,6.71,0,0,1-4.92-1.75,6.36,6.36,0,0,1-1.79-4.76,6.35,6.35,0,0,1,1.86-4.85,7,7,0,0,1,5-1.75,6.63,6.63,0,0,1,4.88,1.75A6.23,6.23,0,0,1,159.27,65a6.59,6.59,0,0,1-1.83,4.92A6.75,6.75,0,0,1,152.45,71.68Zm.09-10.16a2.58,2.58,0,0,0-2.12.94,4.14,4.14,0,0,0-.76,2.67q0,3.6,2.91,3.6c1.84,0,2.77-1.24,2.77-3.7S154.41,61.52,152.54,61.52Z" class="d"/><path d="M161,71.05V67.92a8.12,8.12,0,0,0,1.9.85,6.24,6.24,0,0,0,1.79.29,3.82,3.82,0,0,0,1.62-.29.9.9,0,0,0,.59-.85.79.79,0,0,0-.27-.61,2.54,2.54,0,0,0-.69-.43,8.92,8.92,0,0,0-.92-.33,7.91,7.91,0,0,1-1-.33,9.46,9.46,0,0,1-1.31-.6,4,4,0,0,1-.95-.75,3.1,3.1,0,0,1-.59-1,4,4,0,0,1-.2-1.33,3.5,3.5,0,0,1,.46-1.81,3.9,3.9,0,0,1,1.22-1.24,5.58,5.58,0,0,1,1.75-.7,9,9,0,0,1,2-.23,10.78,10.78,0,0,1,1.69.13,12,12,0,0,1,1.68.37v3a5.83,5.83,0,0,0-1.57-.64,6.67,6.67,0,0,0-1.64-.22,4,4,0,0,0-.71.07,2.49,2.49,0,0,0-.6.2,1,1,0,0,0-.4.33.71.71,0,0,0-.14.45.83.83,0,0,0,.22.59,1.84,1.84,0,0,0,.57.42,4.81,4.81,0,0,0,.79.32l.86.29a10.57,10.57,0,0,1,1.39.58,4.45,4.45,0,0,1,1.07.75,2.91,2.91,0,0,1,.68,1,3.52,3.52,0,0,1,.24,1.36,3.57,3.57,0,0,1-.48,1.9,3.85,3.85,0,0,1-1.29,1.28,5.7,5.7,0,0,1-1.84.72,10.24,10.24,0,0,1-2.17.23A11.3,11.3,0,0,1,161,71.05Z" class="d"/><path d="M178.73,71.68a6.73,6.73,0,0,1-4.92-1.75A6.36,6.36,0,0,1,172,65.17a6.35,6.35,0,0,1,1.85-4.85,7,7,0,0,1,5-1.75,6.63,6.63,0,0,1,4.88,1.75A6.23,6.23,0,0,1,185.55,65a6.62,6.62,0,0,1-1.82,4.92A6.79,6.79,0,0,1,178.73,71.68Zm.09-10.16a2.59,2.59,0,0,0-2.12.94,4.2,4.2,0,0,0-.76,2.67q0,3.6,2.91,3.6c1.85,0,2.77-1.24,2.77-3.7S180.69,61.52,178.82,61.52Z" class="d"/><path d="M195.83,55.82a4,4,0,0,0-1.43-.29q-1.86,0-1.86,2v1.34h2.86v2.84h-2.86v9.66H188.7V61.72h-2.1V58.88h2.1V57.32a4.49,4.49,0,0,1,1.39-3.44,5.32,5.32,0,0,1,3.79-1.3,6.73,6.73,0,0,1,2,.24Z" class="d"/><path d="M205.29,71.23a5.73,5.73,0,0,1-2.58.45q-4.07,0-4.07-4.24V61.72h-2V58.88h2v-2.7l3.84-1.1v3.8h2.81v2.84h-2.81v5c0,1.31.52,2,1.55,2a2.58,2.58,0,0,0,1.26-.36Z" class="d"/><path d="M104.22,95a9,9,0,0,1-4,.78A6.7,6.7,0,0,1,95.31,94a6.43,6.43,0,0,1-1.85-4.79A6.76,6.76,0,0,1,95.54,84a7.4,7.4,0,0,1,5.28-2,9.2,9.2,0,0,1,3.4.55v1.66a7.37,7.37,0,0,0-3.42-.8,5.28,5.28,0,0,0-5.57,5.63A5.23,5.23,0,0,0,96.67,93a5.15,5.15,0,0,0,3.79,1.44,7.6,7.6,0,0,0,3.76-.89Z" class="d"/><path d="M117.73,95.6h-7.64V82.3h7.32v1.41h-5.63v4.42H117v1.4h-5.21v4.66h6Z" class="d"/><path d="M133.77,95.6h-2l-2.41-3.73a7.94,7.94,0,0,0-.65-.89,3.43,3.43,0,0,0-.63-.59,2.21,2.21,0,0,0-.71-.34,3.13,3.13,0,0,0-.85-.11h-1.39V95.6h-1.69V82.3h4.31a6.8,6.8,0,0,1,1.74.21,4,4,0,0,1,1.39.67,3,3,0,0,1,.92,1.11,3.44,3.44,0,0,1,.34,1.55,3.55,3.55,0,0,1-.23,1.28,3.27,3.27,0,0,1-.65,1,3.7,3.7,0,0,1-1,.77,5.17,5.17,0,0,1-1.32.5v0a2.78,2.78,0,0,1,.62.34,2.66,2.66,0,0,1,.51.45,6.11,6.11,0,0,1,.48.59l.53.76Zm-8.65-11.89v4.82h2.3a3.68,3.68,0,0,0,1.17-.18,2.6,2.6,0,0,0,.93-.5,2.23,2.23,0,0,0,.61-.81,2.47,2.47,0,0,0,.22-1.07,2,2,0,0,0-.75-1.67,3.43,3.43,0,0,0-2.16-.59Z" class="d"/><path d="M146.29,83.71h-4.17V95.6h-1.69V83.71h-4.15V82.3h10Z" class="d"/><path d="M153.17,95.6h-1.69V82.3h1.69Z" class="d"/><path d="M167.21,83.71h-5.64v4.6h5.22v1.4h-5.22V95.6h-1.69V82.3h7.33Z" class="d"/><path d="M174.56,95.6h-1.69V82.3h1.69Z" class="d"/><path d="M188.92,95.6h-7.64V82.3h7.32v1.41H183v4.42h5.21v1.4H183v4.66h5.95Z" class="d"/><path d="M194.63,95.6V82.3h4q7.62,0,7.62,6.48a6.29,6.29,0,0,1-2.11,5,8.23,8.23,0,0,1-5.67,1.87Zm1.69-11.89V94.19h2.15a6.43,6.43,0,0,0,4.41-1.4,5,5,0,0,0,1.58-4q0-5.11-5.89-5.11Z" class="d"/><path d="M84.25,168.08c-2.33.27-3.5.41-5.83.71-.94-2-1.42-3-2.37-5-3.41.44-5.11.68-8.52,1.17-.37,2.19-.55,3.29-.91,5.48-2.31.35-3.47.52-5.78.89,2-9.95,3-14.93,5.26-24.87l6.6-.9C77.46,154.5,79.77,159,84.25,168.08Zm-10-8.25c-1.45-3-2.19-4.55-3.67-7.58a10.4,10.4,0,0,1-.7-2.07l-.14,0a8.94,8.94,0,0,1-.14,2.12c-.62,3.34-.93,5-1.52,8.36C70.57,160.33,71.8,160.16,74.27,159.83Z" class="e"/><path d="M86,167c-.23-2.12-.35-3.17-.59-5.28a10.63,10.63,0,0,0,3.36,1.46,10.45,10.45,0,0,0,3.51.24,7.89,7.89,0,0,0,1.76-.36,4.21,4.21,0,0,0,1.22-.62,2.25,2.25,0,0,0,.69-.84,1.91,1.91,0,0,0,.17-1,2.08,2.08,0,0,0-.52-1.2,4.61,4.61,0,0,0-1.2-.91,12.84,12.84,0,0,0-1.75-.73c-.67-.22-1.39-.44-2.17-.66A11,11,0,0,1,86,154.72a6.07,6.07,0,0,1-1.85-3.87,6.18,6.18,0,0,1,.41-3.26,6.38,6.38,0,0,1,1.87-2.42,9.57,9.57,0,0,1,3-1.59,16.42,16.42,0,0,1,3.69-.78,23.1,23.1,0,0,1,3.46-.09,13.64,13.64,0,0,1,2.82.44l.42,4.95a8.23,8.23,0,0,0-1.41-.62,11.31,11.31,0,0,0-1.55-.38,12,12,0,0,0-1.56-.17,11.49,11.49,0,0,0-1.46,0,8.35,8.35,0,0,0-1.71.34,4.42,4.42,0,0,0-1.25.62,2.38,2.38,0,0,0-.75.84,1.73,1.73,0,0,0-.19,1,1.9,1.9,0,0,0,.43,1,3.74,3.74,0,0,0,1,.8,9.27,9.27,0,0,0,1.53.68c.59.21,1.26.43,2,.65a20.32,20.32,0,0,1,2.75,1,9.13,9.13,0,0,1,2.12,1.34,5.85,5.85,0,0,1,1.44,1.81,7.65,7.65,0,0,1,.17,5.89,6.26,6.26,0,0,1-1.87,2.36,9.28,9.28,0,0,1-2.91,1.48,18.41,18.41,0,0,1-3.59.71,21.63,21.63,0,0,1-3.76.06A11.69,11.69,0,0,1,86,167Z" class="e"/><path d="M105.12,165.13c-.17-2.12-.25-3.18-.42-5.3A10.58,10.58,0,0,0,108,161.4a10.75,10.75,0,0,0,3.5.37,8.34,8.34,0,0,0,1.77-.3,4.34,4.34,0,0,0,1.24-.59,2.27,2.27,0,0,0,.72-.81,1.88,1.88,0,0,0,.19-1,1.91,1.91,0,0,0-.48-1.21,4.31,4.31,0,0,0-1.16-.95,11.79,11.79,0,0,0-1.73-.79c-.66-.24-1.37-.49-2.14-.73a10.88,10.88,0,0,1-4.45-2.52,6.14,6.14,0,0,1-1.73-3.93,6.07,6.07,0,0,1,2.47-5.6,9.58,9.58,0,0,1,3-1.49,16.24,16.24,0,0,1,3.72-.65,20.79,20.79,0,0,1,3.46,0,14,14,0,0,1,2.8.53l.26,5a9.38,9.38,0,0,0-1.39-.66,11.33,11.33,0,0,0-1.54-.44,10.43,10.43,0,0,0-1.56-.21,10.21,10.21,0,0,0-1.46,0,7.27,7.27,0,0,0-1.71.28,4.54,4.54,0,0,0-1.27.57,2.59,2.59,0,0,0-.78.81,1.87,1.87,0,0,0,.18,2,3.62,3.62,0,0,0,1,.84,10.17,10.17,0,0,0,1.51.73c.58.23,1.25.47,2,.72a18.93,18.93,0,0,1,2.7,1.11,8.83,8.83,0,0,1,2.08,1.41,5.69,5.69,0,0,1,1.37,1.86,7.63,7.63,0,0,1,0,5.89,6.47,6.47,0,0,1-2,2.3,9.17,9.17,0,0,1-3,1.37,18.51,18.51,0,0,1-3.61.6,22.13,22.13,0,0,1-3.75-.07A11.93,11.93,0,0,1,105.12,165.13Z" class="e"/><path d="M135.5,164.88a11.42,11.42,0,0,1-8.49-3.06,12,12,0,0,1-3.64-8.52,12.36,12.36,0,0,1,3-9.27,11.88,11.88,0,0,1,8.92-3.78,11.35,11.35,0,0,1,8.66,3.19,11.92,11.92,0,0,1,3.32,8.77,12.64,12.64,0,0,1-3.25,9.08A11.53,11.53,0,0,1,135.5,164.88Zm-.27-20a5.62,5.62,0,0,0-4.58,2.25,10,10,0,0,0,.37,11.19,5.43,5.43,0,0,0,4.46,1.93,5.52,5.52,0,0,0,4.42-2.09,8.58,8.58,0,0,0,1.57-5.58,9.08,9.08,0,0,0-1.72-5.74A5.36,5.36,0,0,0,135.23,144.87Z" class="e"/><path d="M168.43,163.73a16.33,16.33,0,0,1-6.87,1.08c-3.66-.07-6.53-1.17-8.62-3.33a11.8,11.8,0,0,1-3.17-8.59,12.2,12.2,0,0,1,3.66-9.25,12.89,12.89,0,0,1,9.61-3.42,18,18,0,0,1,6.12,1c-.07,2.07-.1,3.1-.17,5.16a11,11,0,0,0-5.61-1.58,7.52,7.52,0,0,0-5.64,2,8.68,8.68,0,0,0-.27,11.21,7.08,7.08,0,0,0,5.26,2.14,11.64,11.64,0,0,0,5.86-1.36Z" class="e"/><path d="M177.94,165c-2.15-.11-3.22-.16-5.38-.24l.95-23.79,5.6.25C178.65,150.7,178.41,155.45,177.94,165Z" class="e"/><path d="M204.34,166.88c-2.34-.22-3.51-.33-5.85-.53-.5-2.17-.75-3.25-1.26-5.42-3.42-.28-5.14-.41-8.56-.64-.82,2.06-1.23,3.1-2,5.17-2.33-.15-3.49-.22-5.82-.35,4-9.32,6.06-14,10.34-23.21,2.65.19,4,.29,6.63.5C200.55,152.18,201.86,157.08,204.34,166.88Zm-8-10.16c-.79-3.27-1.19-4.91-2-8.18a10.18,10.18,0,0,1-.25-2.16l-.14,0a8.76,8.76,0,0,1-.58,2c-1.31,3.14-2,4.71-3.24,7.86C192.6,156.43,193.84,156.52,196.32,156.72Z" class="e"/><path d="M224.08,149.52c-2.8-.35-4.2-.52-7-.85-.88,7.73-1.33,11.59-2.21,19.32-2.15-.25-3.23-.37-5.38-.59.82-7.74,1.22-11.6,2-19.34-2.8-.29-4.2-.43-7-.69l.4-4.35c7.89.74,11.83,1.17,19.7,2.17Z" class="e"/><path d="M239.05,171.29c-5.68-.9-8.52-1.31-14.22-2.07,1.26-9.44,1.88-14.16,3.13-23.6,5.71.76,8.56,1.17,14.25,2.07l-.68,4.31c-3.44-.54-5.16-.8-8.61-1.29l-.75,5.24c3.18.46,4.77.69,8,1.19-.27,1.72-.41,2.58-.68,4.3-3.15-.5-4.73-.73-7.88-1.18l-.77,5.39c3.58.51,5.37.78,8.94,1.34Z" class="e"/></svg>